<svg height='300px' width='300px'  fill="#000000" xmlns="http://www.w3.org/2000/svg" xmlns:xlink="http://www.w3.org/1999/xlink" version="1.1" x="0px" y="0px" viewBox="0 0 90.063 100" enable-background="new 0 0 90.063 100" xml:space="preserve"><path d="M89.684,63.722c-0.152-1.12-1.184-1.956-2.288-1.816c-1.126,0.105-1.969,1.081-1.909,2.212  c0.601,11.225-7.804,14.295-11.809,15.12C71.596,63.394,52.95,41.635,49.724,40.027c-0.958-0.728-1.948-5.615-2.142-10.449  c0.307-0.378,0.597-0.79,0.869-1.235c4.936-8.112-2.27-23.901-7.856-27.391c-5.55-3.473-18.935,3.574-21.56,5.021  c-0.342,0.188-0.625,0.468-0.817,0.807l-4.582,8.086l-11.854,1.93c-0.993,0.162-1.733,1.001-1.769,2.006  c-0.04,1.147-0.259,11.336,4.578,15.886c1.73,1.63,3.944,2.367,6.4,2.126c6.896-0.662,10.149,0.791,11.036,1.483  c-0.068,0.259-0.161,0.591-0.267,0.984c-1.84,6.787-7.349,27.111,4.85,36.554V89.41c-2.638,1.215-7.092,3.793-7.172,7.37v1.112  c0,1.165,0.944,2.109,2.109,2.109h10.891c-0.175-0.972,0.065-2.089,0.589-2.926c0.517-0.854,1.21-1.48,1.911-1.995  c1.421-1.009,2.933-1.64,4.441-2.169c1.099-0.381,2.207-0.678,3.318-0.946c-0.542-0.423-1.056-0.888-1.507-1.454  c-1.95-2.104-2.926-5.064-2.752-7.764c0.12-2.722,1.067-5.184,2.209-7.437c1.165-2.253,2.583-4.337,4.21-6.224  c-1.343,2.093-2.437,4.334-3.241,6.639c-0.788,2.295-1.307,4.714-1.07,6.986c0.203,2.278,1.249,4.238,2.881,5.566  c0.746,0.736,1.783,1.176,2.743,1.667c0.997,0.446,2.15,0.677,3.188,1.034c1.107,0.38,1.696,1.586,1.316,2.693  c-0.264,0.768-0.925,1.287-1.675,1.406l-0.149,0.023l-0.004,0.001c-1.387-0.001-2.886,0.082-4.32,0.217  c-1.445,0.14-2.882,0.34-4.269,0.649c-1.382,0.306-2.74,0.721-3.866,1.341c-1.13,0.643-1.876,1.425-1.827,2.453  c0.005,0.085-0.021,0.161-0.036,0.241H73.19c1.114,0,2.037-0.867,2.104-1.979l0.239-3.865c3.614-0.301,6.631-1.767,8.982-4.372  C91.994,81.509,89.78,64.442,89.684,63.722z"></path></svg>